<svg width="384.167" height="684.094" xmlns="http://www.w3.org/2000/svg" xmlns:xlink="http://www.w3.org/1999/xlink"><defs><linearGradient id="b"><stop stop-color="#b3b3b3" offset="0"/><stop stop-color="#b3b3b3" stop-opacity="0" offset="1"/></linearGradient><linearGradient y2=".204" x2=".5" y1="1.467" x1=".5" id="l" xlink:href="#a"/><linearGradient id="a"><stop stop-color="#9d9f9f" offset="0"/><stop stop-color="#9d9f9f" stop-opacity="0" offset="1"/></linearGradient><linearGradient id="c"><stop stop-color="#ccc" offset="0"/><stop stop-color="#f9f9f9" offset="1"/></linearGradient><linearGradient id="d"><stop stop-color="#ccc" offset="0"/><stop stop-color="#fff" offset="1"/></linearGradient><linearGradient id="e"><stop stop-color="#ccc" offset="0"/><stop stop-color="#f9f9f9" offset="1"/></linearGradient><linearGradient id="f"><stop stop-color="#f2f2f2" offset="0"/><stop stop-color="#f2f2f2" stop-opacity="0" offset="1"/></linearGradient><radialGradient r="35.536" fy="34.139" fx="-13431.792" cy="34.139" cx="-13431.792" gradientTransform="matrix(-2.10064 0 0 -7.15771 -28132 913.562)" gradientUnits="userSpaceOnUse" id="n" xlink:href="#b"/><radialGradient r="35.536" fy="15.347" fx="-13536.45" cy="15.347" cx="-13536.45" gradientTransform="matrix(-2.0825 .54917 -1.82513 -6.92111 -27826 8281.74)" gradientUnits="userSpaceOnUse" id="m" xlink:href="#b"/><radialGradient r="16.706" fy="89.95" fx="-11587.704" cy="89.95" cx="-11587.704" gradientTransform="matrix(-8.38822 .2287 -.04262 -1.56332 -97001.5 2919.28)" gradientUnits="userSpaceOnUse" id="k" xlink:href="#c"/><radialGradient r="3.58" fy="87.215" fx="-11572.255" cy="87.215" cx="-11572.255" gradientTransform="matrix(-9.17449 .00073 -.00089 -11.1652 -105950 1105.12)" gradientUnits="userSpaceOnUse" id="j" xlink:href="#d"/><radialGradient r="7.43" fy="91.765" fx="-11605.001" cy="91.765" cx="-11605.001" gradientTransform="matrix(-1.07732 -4.36256 6.05876 -1.7152 -12915.4 -50336.2)" gradientUnits="userSpaceOnUse" id="i" xlink:href="#e"/><radialGradient r="27.154" fy="61.917" fx="-11567.374" cy="61.917" cx="-11567.374" gradientTransform="matrix(-3.79397 .30374 -.13375 -1.85921 -43672.5 3698.45)" gradientUnits="userSpaceOnUse" id="h" xlink:href="#f"/><filter id="g" color-interpolation-filters="sRGB"><feGaussianBlur stdDeviation=".786"/></filter></defs><path fill="#8c8b88" filter="url(#g)" d="M373.52 619.367c-2.927 12.15.823 7.18-14.636 2.138 12.14 49.549-31.449 21.41-53.925 22.43-52.271 14.224-139.25 41.059-199.01 34.372-24.722-2.549-24.39 4.206-44.28-7.955-4.241-13.318-47.36-23.674-52.954-28.489l36.572-120.211c19.319-56.993 44.432-109.653 72.803-166.105 6.115-7.536 9.734-37.296 20.27-47.604 1.344-9.958-1.523-20.547-3.047-30.933-10.607-9.373-8.772-18.922-12.652-28.296 17.454-13.135 101.675-14.243 115.81-5.449-7.668 40.246-11.839 34.698-16.38 57.352 1.654 5.108.611 9.469 4.4 12.316 15.85 29.559 28.101 44.96 40.122 68.12 29.534 41.254 49.283 83.242 70.326 125.132 14.927 38.341 30.256 76.773 36.582 113.182z"/><path fill="#1a1a1a" d="M128.783 106.568c-6.744-.074-21.786-48.268-16.157-50.251 18.847-6.642 42.998-19.014 43.672-17.978.473-1.465 4.474-35.728 5.279-33.207.608 1.907 34.88 0 34.88 0 1.576 11.216 2.642 22.975 7.353 30.769 27.982 12.784 45.612 10.814 43.97 17.83.797 15.977-6.589 29.837-11.982 44.211l-53.693.829-53.322 7.788v.01z"/><path opacity=".113" fill="url(#h)" d="M128.783 106.568c-6.744-.074-21.786-48.268-16.157-50.251 18.847-6.642 42.998-19.014 43.672-17.978.473-1.465 4.474-35.728 5.279-33.207.608 1.907 34.88 0 34.88 0 1.576 11.216 2.642 22.975 7.353 30.769 27.982 12.784 45.612 10.814 43.97 17.83.797 15.977-6.589 29.837-11.982 44.211l-53.693.829-53.322 7.788v.01z"/><path fill="#fff" d="M373.486 589.118c-2.932 16.21.825 9.58-14.63 2.853 12.13 66.1-31.455 28.563-53.923 29.923-52.275 18.976-139.255 54.774-199.017 45.852-24.718-3.4-24.394 5.612-44.274-10.613-4.25-17.764-47.369-31.582-52.964-38.005l36.57-160.366c19.327-76.03 44.437-146.282 72.804-221.59 6.116-10.054 9.738-49.754 20.279-63.508 1.345-13.282-1.527-27.407-3.054-41.263-10.61-12.504-8.771-25.242-12.657-37.747 17.468-17.524 101.678-19.003 115.82-7.268-7.669 53.69-11.838 46.286-16.379 76.507 1.649 6.814.608 12.632 4.4 16.43 15.852 39.433 28.103 59.978 40.117 90.875 29.53 55.035 49.282 111.048 70.338 166.932 14.92 51.148 30.245 102.416 36.57 150.988z"/><path opacity=".474" fill="url(#i)" d="M124.1 95.24c5.757-9.855 13.062-8.104 18.198-9.709 14.068 34.836 17.616 66.125 19.812 96.809l-24.347-8.018c2.095-1.195-1.047-38.168-2.398-39.618-9.143-9.85-13.029-39.504-11.265-39.463z"/><path opacity=".474" fill="url(#j)" d="M221.898 162.646c6.32-28.112 12.003-35.68 16.198-75.284-8.77-4.547-8.974-2.739-11.94-4.425-2.824 27.43-4.393 48.794-6.601 79.943l2.343-.236v.002z"/><path opacity=".474" fill="url(#k)" d="M161.07 180.698c28.968 3.909 43.625 1.783 66.032 2.925-8.595-21.9-7.622-12.974-1.277-100.995-21.387-2.914-57.072-5.065-83.52 3.009 10.406 28.532 16.92 50.638 18.764 95.061z"/><path opacity=".409" fill="url(#l)" d="M373.486 589.118c-2.932 16.21.825 9.58-14.63 2.853 12.13 66.1-31.455 28.563-53.923 29.923-52.275 18.976-139.255 54.774-199.017 45.852-24.718-3.4-24.394 5.612-44.274-10.613-4.25-17.764-47.369-31.582-52.964-38.005l36.57-160.366c19.327-76.03 44.437-146.282 72.804-221.59 6.116-10.054 9.738-49.754 20.279-63.508 1.345-13.282-1.527-27.407-3.054-41.263-10.61-12.504-8.771-25.242-12.657-37.747 17.468-17.524 101.678-19.003 115.82-7.268-7.669 53.69-11.838 46.286-16.379 76.507 1.649 6.814.608 12.632 4.4 16.43 15.852 39.433 28.103 59.978 40.117 90.875 29.53 55.035 49.282 111.048 70.338 166.932 14.92 51.148 30.245 102.416 36.57 150.988z"/><path opacity=".53" fill="url(#m)" d="M373.486 589.118c-2.932 16.21.825 9.58-14.63 2.853 12.13 66.1-31.455 28.563-53.923 29.923-52.275 18.976-139.255 54.774-199.017 45.852-24.718-3.4-24.394 5.612-44.274-10.613-4.25-17.764-47.369-31.582-52.964-38.005l36.57-160.366c19.327-76.03 44.437-146.282 72.804-221.59 6.116-10.054 9.738-49.754 20.279-63.508 1.345-13.282-1.527-27.407-3.054-41.263-10.61-12.504-8.771-25.242-12.657-37.747 17.468-17.524 101.678-19.003 115.82-7.268-7.669 53.69-11.838 46.286-16.379 76.507 1.649 6.814.608 12.632 4.4 16.43 15.852 39.433 28.103 59.978 40.117 90.875 29.53 55.035 49.282 111.048 70.338 166.932 14.92 51.148 30.245 102.416 36.57 150.988z"/><path opacity=".309" fill="url(#n)" d="M373.486 589.118c-2.932 16.21.825 9.58-14.63 2.853 12.13 66.1-31.455 28.563-53.923 29.923-52.275 18.976-139.255 54.774-199.017 45.852-24.718-3.4-24.394 5.612-44.274-10.613-4.25-17.764-47.369-31.582-52.964-38.005l36.57-160.366c19.327-76.03 44.437-146.282 72.804-221.59 6.116-10.054 9.738-49.754 20.279-63.508 1.345-13.282-1.527-27.407-3.054-41.263-10.61-12.504-8.771-25.242-12.657-37.747 17.468-17.524 101.678-19.003 115.82-7.268-7.669 53.69-11.838 46.286-16.379 76.507 1.649 6.814.608 12.632 4.4 16.43 15.852 39.433 28.103 59.978 40.117 90.875 29.53 55.035 49.282 111.048 70.338 166.932 14.92 51.148 30.245 102.416 36.57 150.988z"/></svg>