<?xml version="1.0"?><svg width="384.16745" height="684.09442" xmlns="http://www.w3.org/2000/svg" xmlns:xlink="http://www.w3.org/1999/xlink">
 <defs>
  <filter id="filter8921" color-interpolation-filters="sRGB">
   <feGaussianBlur id="feGaussianBlur8923" stdDeviation="0.785705"/>
  </filter>
  <radialGradient r="35.536499" fy="34.139431" fx="-13431.792" cy="34.139431" cx="-13431.792" gradientTransform="matrix(-2.10064, 3.86238e-06, -6.25432e-06, -7.15771, -28132, 913.562)" gradientUnits="userSpaceOnUse" id="radialGradient13071" xlink:href="#linearGradient8973"/>
  <linearGradient id="linearGradient8973">
   <stop stop-color="#b3b3b3" id="stop8975" offset="0"/>
   <stop stop-color="#b3b3b3" stop-opacity="0" id="stop8977" offset="1"/>
  </linearGradient>
  <radialGradient r="35.536499" fy="15.346805" fx="-13536.45" cy="15.346805" cx="-13536.45" gradientTransform="matrix(-2.0825, 0.549168, -1.82513, -6.92111, -27826, 8281.74)" gradientUnits="userSpaceOnUse" id="radialGradient13069" xlink:href="#linearGradient8973"/>
  <linearGradient y2="0.204328" x2="0.499976" y1="1.467203" x1="0.499976" id="linearGradient13067" xlink:href="#linearGradient8963"/>
  <linearGradient id="linearGradient8963">
   <stop stop-color="#9d9f9f" id="stop8965" offset="0"/>
   <stop stop-color="#9d9f9f" stop-opacity="0" id="stop8967" offset="1"/>
  </linearGradient>
  <radialGradient r="16.7055" fy="89.949921" fx="-11587.704" cy="89.949921" cx="-11587.704" gradientTransform="matrix(-8.38822, 0.228705, -0.0426226, -1.56332, -97001.5, 2919.28)" gradientUnits="userSpaceOnUse" id="radialGradient13065" xlink:href="#linearGradient8925"/>
  <linearGradient id="linearGradient8925">
   <stop stop-color="#cccccc" offset="0" id="stop8927"/>
   <stop stop-color="#f9f9f9" offset="1" id="stop8929"/>
  </linearGradient>
  <radialGradient r="3.58" fy="87.215492" fx="-11572.255" cy="87.215492" cx="-11572.255" gradientTransform="matrix(-9.17449, 0.000728379, -0.000886195, -11.1652, -105950, 1105.12)" gradientUnits="userSpaceOnUse" id="radialGradient13063" xlink:href="#linearGradient8937"/>
  <linearGradient id="linearGradient8937">
   <stop stop-color="#cccccc" offset="0" id="stop8939"/>
   <stop stop-color="#ffffff" offset="1" id="stop8941"/>
  </linearGradient>
  <radialGradient r="7.43029" fy="91.764748" fx="-11605.001" cy="91.764748" cx="-11605.001" gradientTransform="matrix(-1.07732, -4.36256, 6.05876, -1.7152, -12915.4, -50336.2)" gradientUnits="userSpaceOnUse" id="radialGradient13061" xlink:href="#linearGradient8931"/>
  <linearGradient id="linearGradient8931">
   <stop stop-color="#cccccc" offset="0" id="stop8933"/>
   <stop stop-color="#f9f9f9" offset="1" id="stop8935"/>
  </linearGradient>
  <radialGradient r="27.154421" fy="61.917255" fx="-11567.374" cy="61.917255" cx="-11567.374" gradientTransform="matrix(-3.79397, 0.303744, -0.133746, -1.85921, -43672.5, 3698.45)" gradientUnits="userSpaceOnUse" id="radialGradient13059" xlink:href="#linearGradient8901"/>
  <linearGradient id="linearGradient8901">
   <stop stop-color="#f2f2f2" id="stop8903" offset="0"/>
   <stop stop-color="#f2f2f2" stop-opacity="0" id="stop8905" offset="1"/>
  </linearGradient>
 </defs>
 <metadata id="metadata34465">image/svg+xml</metadata>
 <g>
  <title>Layer 1</title>
  <g id="layer1">
   <path fill="#8c8b88" filter="url(#filter8921)" id="path13017" d="m373.520813,619.36676c-2.927368,12.150452 0.822052,7.180481 -14.636749,2.137817c12.140472,49.549377 -31.448914,21.411255 -53.925323,22.431335c-52.271149,14.223145 -139.24942,41.057983 -199.009369,34.371216c-24.722046,-2.548889 -24.391205,4.205566 -44.281128,-7.954956c-4.240631,-13.31842 -47.358833,-23.674377 -52.952873,-28.489014l36.57177,-120.211609c19.318481,-56.993042 44.431488,-109.652649 72.802689,-166.104309c6.115341,-7.536438 9.734436,-37.296143 20.270874,-47.604492c1.343369,-9.957458 -1.523834,-20.546539 -3.047653,-30.932617c-10.606613,-9.373505 -8.772003,-18.922485 -12.651749,-28.29599c17.453796,-13.135468 101.675125,-14.243256 115.810623,-5.448669c-7.66925,40.245972 -11.839722,34.697052 -16.381104,57.35141c1.654144,5.107819 0.611511,9.46875 4.401031,12.315918c15.849762,29.559143 28.100494,44.960266 40.120667,68.120911c29.534119,41.25354 49.283691,83.241394 70.326477,125.13147c14.92746,38.341248 30.25592,76.772705 36.581818,113.18158z"/>
   <path fill="#1a1a1a" d="m128.782501,106.568207c-6.7435,-0.074402 -21.785309,-48.268402 -16.156403,-50.25119c18.846405,-6.641998 42.997406,-19.014008 43.672394,-17.978012c0.472992,-1.464996 4.473999,-35.727997 5.278015,-33.207001c0.608002,1.906998 34.880981,0 34.880981,0c1.575012,11.216003 2.641998,22.975006 7.35202,30.768997c27.981995,12.783997 45.612,10.813995 43.970001,17.830017c0.796997,15.977173 -6.588013,29.836487 -11.981018,44.211395l-53.692993,0.828491l-53.322998,7.788483l0,0.00882z" id="path13019"/>
   <path opacity="0.113043" fill="url(#radialGradient13059)" id="path13021" d="m128.782501,106.568207c-6.7435,-0.074402 -21.785309,-48.268402 -16.156403,-50.25119c18.846405,-6.641998 42.997406,-19.014008 43.672394,-17.978012c0.472992,-1.464996 4.473999,-35.727997 5.278015,-33.207001c0.608002,1.906998 34.880981,0 34.880981,0c1.575012,11.216003 2.641998,22.975006 7.35202,30.768997c27.981995,12.783997 45.612,10.813995 43.970001,17.830017c0.796997,15.977173 -6.588013,29.836487 -11.981018,44.211395l-53.692993,0.828491l-53.322998,7.788483l0,0.00882z"/>
   <path fill="#ffffff" d="m373.486389,589.118469c-2.932678,16.208862 0.824402,9.579224 -14.629639,2.852966c12.129425,66.099609 -31.455414,28.562622 -53.923553,29.922852c-52.274811,18.975281 -139.255249,54.773621 -199.017151,45.851929c-24.718353,-3.399658 -24.393997,5.611938 -44.274078,-10.613098c-4.250381,-17.764343 -47.368958,-31.582458 -52.964027,-38.004639l36.570709,-160.366455c19.325996,-76.030212 44.436256,-146.281555 72.803566,-221.590698c6.115387,-10.053589 9.737335,-49.75296 20.278778,-63.506836c1.344696,-13.282227 -1.527161,-27.407104 -3.054321,-41.263702c-10.609024,-12.503754 -8.771027,-25.242035 -12.656494,-37.74649c17.467712,-17.523804 101.677673,-19.002991 115.82077,-7.268188c-7.669586,53.689087 -11.838867,46.285736 -16.379791,76.507263c1.648804,6.814087 0.608185,12.6315 4.399048,16.429108c15.852692,39.433136 28.10376,59.978821 40.118286,90.875397c29.529602,55.035156 49.281281,111.048096 70.337158,166.931946c14.920197,51.148315 30.24585,102.41626 36.57074,150.988647z" id="path13023"/>
   <path opacity="0.473913" fill="url(#radialGradient13061)" id="path13025" d="m124.100037,95.240845c5.757263,-9.855591 13.06192,-8.104767 18.19751,-9.709625c14.068787,34.83609 17.616394,66.124603 19.812531,96.808319l-24.34671,-8.017578c2.094772,-1.194702 -1.047394,-38.168152 -2.398849,-39.617615c-9.142685,-9.85083 -13.028152,-39.50473 -11.264481,-39.463501z"/>
   <path opacity="0.473913" fill="url(#radialGradient13063)" id="path13027" d="m221.898499,162.645966c6.319,-28.111847 12.002014,-35.680756 16.197998,-75.283569c-8.770996,-4.546997 -8.973999,-2.73938 -11.940002,-4.425293c-2.824982,27.430023 -4.393005,48.794006 -6.60199,79.943329l2.343994,-0.236511l0,0l0,0.002045z"/>
   <path opacity="0.473913" fill="url(#radialGradient13065)" d="m161.069427,180.698181c28.968719,3.908447 43.625397,1.783264 66.032745,2.925262c-8.595367,-21.899872 -7.622314,-12.974091 -1.277161,-100.99585c-21.386963,-2.913757 -57.072479,-5.064636 -83.520706,3.009033c10.406326,28.532867 16.920395,50.638153 18.765121,95.061554z" id="path13029"/>
   <path opacity="0.408696" fill="url(#linearGradient13067)" id="path13031" d="m373.486389,589.118469c-2.932678,16.208862 0.824402,9.579224 -14.629639,2.852966c12.129425,66.099609 -31.455414,28.562622 -53.923553,29.922852c-52.274811,18.975281 -139.255249,54.773621 -199.017151,45.851929c-24.718353,-3.399658 -24.393997,5.611938 -44.274078,-10.613098c-4.250381,-17.764343 -47.368958,-31.582458 -52.964027,-38.004639l36.570709,-160.366455c19.325996,-76.030212 44.436256,-146.281555 72.803566,-221.590698c6.115387,-10.053589 9.737335,-49.75296 20.278778,-63.506836c1.344696,-13.282227 -1.527161,-27.407104 -3.054321,-41.263702c-10.609024,-12.503754 -8.771027,-25.242035 -12.656494,-37.74649c17.467712,-17.523804 101.677673,-19.002991 115.82077,-7.268188c-7.669586,53.689087 -11.838867,46.285736 -16.379791,76.507263c1.648804,6.814087 0.608185,12.6315 4.399048,16.429108c15.852692,39.433136 28.10376,59.978821 40.118286,90.875397c29.529602,55.035156 49.281281,111.048096 70.337158,166.931946c14.920197,51.148315 30.24585,102.41626 36.57074,150.988647z"/>
   <path opacity="0.530435" fill="url(#radialGradient13069)" d="m373.486389,589.118469c-2.932678,16.208862 0.824402,9.579224 -14.629639,2.852966c12.129425,66.099609 -31.455414,28.562622 -53.923553,29.922852c-52.274811,18.975281 -139.255249,54.773621 -199.017151,45.851929c-24.718353,-3.399658 -24.393997,5.611938 -44.274078,-10.613098c-4.250381,-17.764343 -47.368958,-31.582458 -52.964027,-38.004639l36.570709,-160.366455c19.325996,-76.030212 44.436256,-146.281555 72.803566,-221.590698c6.115387,-10.053589 9.737335,-49.75296 20.278778,-63.506836c1.344696,-13.282227 -1.527161,-27.407104 -3.054321,-41.263702c-10.609024,-12.503754 -8.771027,-25.242035 -12.656494,-37.74649c17.467712,-17.523804 101.677673,-19.002991 115.82077,-7.268188c-7.669586,53.689087 -11.838867,46.285736 -16.379791,76.507263c1.648804,6.814087 0.608185,12.6315 4.399048,16.429108c15.852692,39.433136 28.10376,59.978821 40.118286,90.875397c29.529602,55.035156 49.281281,111.048096 70.337158,166.931946c14.920197,51.148315 30.24585,102.41626 36.57074,150.988647z" id="path13033"/>
   <path opacity="0.308696" fill="url(#radialGradient13071)" id="path13035" d="m373.486389,589.118469c-2.932678,16.208862 0.824402,9.579224 -14.629639,2.852966c12.129425,66.099609 -31.455414,28.562622 -53.923553,29.922852c-52.274811,18.975281 -139.255249,54.773621 -199.017151,45.851929c-24.718353,-3.399658 -24.393997,5.611938 -44.274078,-10.613098c-4.250381,-17.764343 -47.368958,-31.582458 -52.964027,-38.004639l36.570709,-160.366455c19.325996,-76.030212 44.436256,-146.281555 72.803566,-221.590698c6.115387,-10.053589 9.737335,-49.75296 20.278778,-63.506836c1.344696,-13.282227 -1.527161,-27.407104 -3.054321,-41.263702c-10.609024,-12.503754 -8.771027,-25.242035 -12.656494,-37.74649c17.467712,-17.523804 101.677673,-19.002991 115.82077,-7.268188c-7.669586,53.689087 -11.838867,46.285736 -16.379791,76.507263c1.648804,6.814087 0.608185,12.6315 4.399048,16.429108c15.852692,39.433136 28.10376,59.978821 40.118286,90.875397c29.529602,55.035156 49.281281,111.048096 70.337158,166.931946c14.920197,51.148315 30.24585,102.41626 36.57074,150.988647z"/>
  </g>
 </g>
</svg>